<?xml version="1.0" encoding="utf-8"?>
<!-- Generator: Adobe Illustrator 25.0.0, SVG Export Plug-In . SVG Version: 6.00 Build 0)  -->
<svg version="1.1" id="cmyk" xmlns="http://www.w3.org/2000/svg" xmlns:xlink="http://www.w3.org/1999/xlink" x="0px" y="0px"
	 viewBox="0 0 792 612" style="enable-background:new 0 0 792 612;" xml:space="preserve">
<style type="text/css">
	.st0{fill:none;}
	.st1{fill:#73797C;}
	.st2{fill:url(#SVGID_1_);}
	.st3{fill:url(#SVGID_2_);}
	.st4{fill:url(#SVGID_3_);}
	.st5{fill:#626F76;}
	.st6{fill:#97A3AB;}
	.st7{fill:#192226;}
	.st8{fill:#BAC4CA;}
	.st9{fill:url(#SVGID_4_);}
	.st10{fill:url(#SVGID_5_);}
	.st11{fill:url(#SVGID_6_);}
	.st12{fill:#D0D7DB;}
	.st13{fill:#4B575E;}
	.st14{fill:url(#SVGID_7_);}
	.st15{fill:url(#SVGID_8_);}
	.st16{fill:#FFFFFF;}
</style>
<g>
	<rect x="276.51" y="147" class="st0" width="240" height="322.37"/>
	<g>
		<g>
			<path class="st1" d="M342.48,359.59h18.25v46.31h27.08v15.46h-45.33V359.59z"/>
			<path class="st1" d="M435.02,415.21c-3.22,4.92-9.17,7.69-16.63,7.69c-16.05,0-26.5-12.77-26.5-32.5
				c0-20.01,11.77-32.35,31.21-32.35c7.76,0,14.39,2.07,19.51,6.01c5.17,4.09,7.1,8.1,7.93,16.25h-19.07
				c-0.53-4.76-4.07-7.82-8.78-7.82c-7.35,0-11.68,6.83-11.68,18.16c0,11.5,4.49,18.4,12.01,18.4c5.94,0,9.37-3.31,10.77-10.67
				h-11.76v-12.98h28.51v35.98h-15.52V415.21z"/>
		</g>
		<g>
			<g>
				<radialGradient id="SVGID_1_" cx="393.6884" cy="264.8705" r="75.1105" gradientUnits="userSpaceOnUse">
					<stop  offset="0.5" style="stop-color:#C3004D"/>
					<stop  offset="0.735" style="stop-color:#C1014D"/>
					<stop  offset="0.8348" style="stop-color:#BA034B"/>
					<stop  offset="0.909" style="stop-color:#AF0647"/>
					<stop  offset="0.9702" style="stop-color:#A00942"/>
					<stop  offset="1" style="stop-color:#960A3F"/>
				</radialGradient>
				<path class="st2" d="M324.5,267.01c0-39.77,32.24-72,71.96-72c39.79,0,72.04,32.23,72.04,72c0,39.77-32.25,72-72.04,72
					C356.75,339.01,324.5,306.78,324.5,267.01z"/>
				
					<linearGradient id="SVGID_2_" gradientUnits="userSpaceOnUse" x1="590.1368" y1="-454.1414" x2="590.1368" y2="-345.9825" gradientTransform="matrix(0.7071 -0.7071 0.7071 0.7071 251.5956 956.6693)">
					<stop  offset="0" style="stop-color:#E49DA7"/>
					<stop  offset="1" style="stop-color:#C3004D"/>
				</linearGradient>
				<path class="st3" d="M342.37,300.14c-21.12-21.12-18.7-57.79,5.37-81.86c24.11-24.12,60.77-26.54,81.89-5.42
					c21.12,21.12,18.7,57.79-5.41,81.9C400.14,318.84,363.49,321.26,342.37,300.14z"/>
				<linearGradient id="SVGID_3_" gradientUnits="userSpaceOnUse" x1="348.0811" y1="230.3883" x2="436.0349" y2="318.3421">
					<stop  offset="0" style="stop-color:#CB3C61"/>
					<stop  offset="1" style="stop-color:#8A093A"/>
				</linearGradient>
				<path class="st4" d="M401.61,236.3c-0.24-0.26-1.5-1.65-1.5-1.65l-6.5,0.73l-0.78,63.9c0,0,1.46,1.72,1.69,2
					c0.23,0.27,0.51,0.47,0.93,0.47c0.42,0,20,0,20.39,0c0.39,0,0.64-0.2,0.64-0.59c0-0.39,0-5.34,0-5.84c0-0.5-0.15-0.84-0.42-1.17
					c-0.28-0.34-1.63-2.02-1.63-2.02l-12.42,1.36c0,0,0-55.84,0-56.24C402.01,236.86,401.86,236.56,401.61,236.3z M364.55,245.39
					c0,5.5,4.5,9.98,10.03,9.98c5.53,0,10.02-4.48,10.02-9.98c0-5.53-4.49-10.03-10.02-10.03
					C369.05,235.36,364.55,239.86,364.55,245.39z M459.32,265.42c-0.32-0.32-1.84-1.94-1.84-1.94l-1.18,1.05h-42.36l-1,6.09
					c0,0,1.25,1.27,1.56,1.59c0.31,0.32,0.76,0.57,1.23,0.57c5.02,0,33.48,0,35.82,0c-2.19,27.95-25.67,49.76-53.75,49.76
					c-14.38,0-27.92-5.62-38.13-15.82c-10.16-10.17-15.76-23.71-15.76-38.13c0-14.42,5.6-27.96,15.76-38.13
					c10.22-10.18,23.77-15.78,38.13-15.78c0,0,3.44,0.04,3.77,0.03c0.34-0.01,0.45-0.18,0.45-0.46c0-0.28,0-5.7,0-5.98
					c0-0.28-0.1-0.52-0.33-0.74c-0.23-0.22-1.57-1.54-1.57-1.54l-2.34,0.38c-34.27,0-62.15,27.91-62.15,62.22
					c0,16.6,6.46,32.22,18.2,43.99c11.73,11.76,27.34,18.23,43.95,18.23c16.65,0,32.28-6.47,44.02-18.23
					c11.74-11.76,18.2-27.38,18.2-43.99c0,0,0-0.92,0-1.51C459.99,266.39,459.82,265.92,459.32,265.42z"/>
				<polygon class="st5" points="394.24,297.88 392.83,299.29 414.43,299.29 413.02,297.88 				"/>
				<path class="st6" d="M413.02,293.54l1.41-1.41c-0.01,0-12.94,0-14.32,0l0,0l-1.41,1.41H413.02z"/>
				<polygon class="st6" points="394.24,236.06 398.7,236.06 400.11,234.66 392.83,234.66 				"/>
				<path class="st7" d="M398.7,293.54l1.41-1.41c0-1.5,0-57.47,0-57.47l0,0l-1.41,1.41V293.54z"/>
				<polygon class="st7" points="413.02,297.88 414.43,299.29 414.43,299.29 414.43,292.13 414.43,292.13 413.02,293.54 				"/>
				<polygon class="st8" points="394.24,236.06 392.83,234.66 392.83,234.66 392.83,299.29 392.83,299.29 394.24,297.88 				"/>
				<linearGradient id="SVGID_4_" gradientUnits="userSpaceOnUse" x1="366.8449" y1="237.3759" x2="380.1292" y2="250.6602">
					<stop  offset="0" style="stop-color:#BAC4CA"/>
					<stop  offset="1" style="stop-color:#192226"/>
				</linearGradient>
				<path class="st9" d="M364.08,244.03c0,5.16,4.22,9.37,9.41,9.37c5.18,0,9.4-4.2,9.4-9.37c0-5.19-4.22-9.41-9.4-9.41
					C368.3,234.62,364.08,238.85,364.08,244.03z M381.48,244.03c0,4.39-3.58,7.96-7.99,7.96c-4.41,0-8.01-3.57-8.01-7.96
					c0-4.41,3.59-8,8.01-8C377.9,236.03,381.48,239.62,381.48,244.03z"/>
				<polygon class="st7" points="398.7,211.75 400.09,213.17 400.09,213.17 400.11,212.4 400.11,206 400.11,206 398.7,207.39 				
					"/>
				<polygon class="st6" points="454.33,263.49 412.94,263.49 414.34,264.9 456.06,264.89 457.47,263.48 457.47,263.48 				"/>
				<linearGradient id="SVGID_5_" gradientUnits="userSpaceOnUse" x1="451.6465" y1="267.0059" x2="341.2163" y2="267.0059">
					<stop  offset="0" style="stop-color:#BAC4CA"/>
					<stop  offset="1" style="stop-color:#192226"/>
				</linearGradient>
				<path class="st10" d="M396.45,211.73c-14.72,0-28.6,5.74-39.08,16.17c-10.42,10.43-16.16,24.31-16.16,39.08
					c0,14.77,5.74,28.65,16.16,39.08c10.47,10.45,24.35,16.21,39.08,16.21c28.97,0,53.19-22.64,55.15-51.54l0.04-1.2l-1.36-0.02
					l-0.09,1.09c-1.91,28.18-25.52,50.25-53.75,50.25c-14.36,0-27.89-5.61-38.08-15.8c-10.15-10.16-15.74-23.68-15.74-38.08
					c0-14.4,5.59-27.93,15.74-38.09c10.21-10.16,23.74-15.76,38.08-15.76l3.64,0.03l-1.39-1.42L396.45,211.73z"/>
				<linearGradient id="SVGID_6_" gradientUnits="userSpaceOnUse" x1="347.5555" y1="228.9151" x2="434.5645" y2="315.9241">
					<stop  offset="0" style="stop-color:#BAC4CA"/>
					<stop  offset="1" style="stop-color:#192226"/>
				</linearGradient>
				<path class="st11" d="M456.06,266.99c0,15.92-6.2,30.89-17.45,42.16c-11.25,11.27-26.23,17.47-42.19,17.47
					c-15.92,0-30.87-6.2-42.12-17.47c-11.25-11.28-17.45-26.25-17.45-42.16c0-32.88,26.72-59.63,59.56-59.63l2.27,0.03l1.41-1.39
					l-3.68-0.04c-33.62,0-60.97,27.38-60.97,61.04c0,16.29,6.34,31.61,17.86,43.16c11.51,11.53,26.82,17.88,43.11,17.88
					c16.33,0,31.67-6.35,43.18-17.88c11.52-11.54,17.86-26.86,17.86-43.16v-3.51l-1.41,1.41V266.99z"/>
				<polygon class="st12" points="414.34,264.9 412.94,263.49 412.93,263.49 412.93,270.62 412.94,270.62 414.34,269.21 				"/>
				<path class="st13" d="M414.34,269.21l-1.41,1.41c0.02,0,35.44,0,37.26,0l1.45-1.41H414.34z"/>
				
					<radialGradient id="SVGID_7_" cx="-101.1554" cy="170.3201" r="53.4391" gradientTransform="matrix(1.9995 0 0 2 562.6982 -122.2578)" gradientUnits="userSpaceOnUse">
					<stop  offset="0.35" style="stop-color:#FFFFFF"/>
					<stop  offset="0.5717" style="stop-color:#FDFDFD"/>
					<stop  offset="0.705" style="stop-color:#F4F6F7"/>
					<stop  offset="0.8149" style="stop-color:#E6EAED"/>
					<stop  offset="0.9116" style="stop-color:#D3DADE"/>
					<stop  offset="1" style="stop-color:#BAC4CA"/>
				</radialGradient>
				<path class="st14" d="M393.6,235.42v63.1h20.06v-5.62h-14.31v-57.48H393.6z M399.34,206.76c-0.76-0.02-2.19-0.04-2.91-0.04
					c-33.17,0-60.2,27.04-60.2,60.27c0,16.12,6.27,31.22,17.63,42.61c11.37,11.39,26.51,17.66,42.57,17.66
					c16.12,0,31.27-6.27,42.64-17.66c11.37-11.39,17.63-26.5,17.63-42.61v-2.74l-2.37,0.01H413.7v5.59h37.29
					c-0.01,0.13-0.02,0.72-0.03,0.84c-1.93,28.39-25.61,50.95-54.51,50.95c-14.56,0-28.28-5.69-38.63-16.02
					c-10.29-10.3-15.97-24.02-15.97-38.62c0-14.61,5.68-28.33,15.97-38.63c10.35-10.3,24.07-15.99,38.63-15.99
					c0.64,0,2.2,0,2.89,0.03V206.76z"/>
				
					<radialGradient id="SVGID_8_" cx="-96.4133" cy="181.448" r="6.7587" gradientTransform="matrix(1.9995 0 0 2 562.6982 -122.2578)" gradientUnits="userSpaceOnUse">
					<stop  offset="0.35" style="stop-color:#FFFFFF"/>
					<stop  offset="0.5653" style="stop-color:#FBFCFC"/>
					<stop  offset="0.7879" style="stop-color:#EFF1F3"/>
					<stop  offset="1" style="stop-color:#DCE1E5"/>
				</radialGradient>
				<path class="st15" d="M373.49,252.63c4.75,0,8.63-3.84,8.63-8.6c0-4.8-3.89-8.64-8.63-8.64c-4.76,0-8.65,3.84-8.65,8.64
					C364.85,248.79,368.74,252.63,373.49,252.63z"/>
				<path class="st16" d="M375.05,236.95c1.98,0,3.79,0.7,5.26,1.83c-1.58-2.05-4.04-3.39-6.81-3.39c-4.76,0-8.65,3.84-8.65,8.64
					c0,2.76,1.33,5.18,3.36,6.76c-1.11-1.45-1.8-3.23-1.8-5.2C366.4,240.79,370.29,236.95,375.05,236.95z"/>
				<path class="st16" d="M399.34,206.76c-0.76-0.02-2.19-0.04-2.91-0.04c-33.17,0-60.2,27.04-60.2,60.27
					c0,16.12,6.27,31.22,17.63,42.61c0.36,0.36,0.74,0.71,1.11,1.07c-10.73-11.26-16.64-25.93-16.64-41.57
					C338.34,235.96,361.82,208.41,399.34,206.76z"/>
				<path class="st16" d="M399.35,292.9c0,0,4.13,1.2,14.31,1.2v-1.2H399.35z"/>
				<path class="st16" d="M399.34,237.2v-1.78h-5.75v63.1c0,0,1.78-9.61,1.78-61.32H399.34z"/>
				<path class="st16" d="M456.7,264.25l-43,0.01v5.59h1.55v-4.04C452.73,265.81,456.7,264.25,456.7,264.25z"/>
				<path class="st16" d="M450.99,269.85c-0.01,0.13-0.02,0.72-0.03,0.84c-1.93,28.39-25.61,50.95-54.51,50.95
					c-14.56,0-28.28-5.69-38.63-16.02c-6.73-6.73-11.48-14.94-13.97-23.89c6.46,23.53,27.98,40.57,53.55,40.57
					c27.44,0,52.72-21.5,54.29-52.44H450.99z"/>
			</g>
		</g>
	</g>
</g>
</svg>
